<svg width="50" height="50" viewBox="0 0 50 50" fill="none" xmlns="http://www.w3.org/2000/svg">
<g clip-path="url(#clip0_241_4)">
<path d="M25 50C31.6304 50 37.9893 47.3661 42.6777 42.6777C47.3661 37.9893 50 31.6304 50 25C50 18.3696 47.3661 12.0107 42.6777 7.32233C37.9893 2.63392 31.6304 0 25 0C18.3696 0 12.0107 2.63392 7.32233 7.32233C2.63392 12.0107 0 18.3696 0 25C0 31.6304 2.63392 37.9893 7.32233 42.6777C12.0107 47.3661 18.3696 50 25 50ZM25.7812 3.90625V8.59375C25.7812 8.80095 25.6989 8.99966 25.5524 9.14618C25.4059 9.29269 25.2072 9.375 25 9.375C24.7928 9.375 24.5941 9.29269 24.4476 9.14618C24.3011 8.99966 24.2188 8.80095 24.2188 8.59375V3.90625C24.2188 3.69905 24.3011 3.50034 24.4476 3.35382C24.5941 3.20731 24.7928 3.125 25 3.125C25.2072 3.125 25.4059 3.20731 25.5524 3.35382C25.6989 3.50034 25.7812 3.69905 25.7812 3.90625ZM25.7812 41.4062V46.0938C25.7812 46.301 25.6989 46.4997 25.5524 46.6462C25.4059 46.7927 25.2072 46.875 25 46.875C24.7928 46.875 24.5941 46.7927 24.4476 46.6462C24.3011 46.4997 24.2188 46.301 24.2188 46.0938V41.4062C24.2188 41.199 24.3011 41.0003 24.4476 40.8538C24.5941 40.7073 24.7928 40.625 25 40.625C25.2072 40.625 25.4059 40.7073 25.5524 40.8538C25.6989 41.0003 25.7812 41.199 25.7812 41.4062ZM14.0625 6.05625C14.1513 6.00465 14.2494 5.97107 14.3513 5.95743C14.4531 5.94379 14.5566 5.95037 14.6559 5.97679C14.7551 6.0032 14.8482 6.04893 14.9298 6.11136C15.0114 6.1738 15.0798 6.2517 15.1313 6.34063L17.475 10.4031C17.5786 10.583 17.6065 10.7966 17.5526 10.997C17.4987 11.1975 17.3673 11.3683 17.1875 11.4719C17.0077 11.5755 16.794 11.6034 16.5936 11.5495C16.3932 11.4956 16.2224 11.3642 16.1187 11.1844L13.775 7.12188C13.672 6.94239 13.6445 6.72939 13.6984 6.52961C13.7523 6.32982 13.8832 6.15959 14.0625 6.05625ZM32.8125 38.5312C32.992 38.4283 33.205 38.4007 33.4048 38.4546C33.6046 38.5085 33.7748 38.6395 33.8781 38.8187L36.2219 42.8781C36.2806 42.967 36.3205 43.0669 36.3392 43.1717C36.3579 43.2766 36.3549 43.3841 36.3305 43.4878C36.3061 43.5914 36.2608 43.689 36.1973 43.7745C36.1338 43.86 36.0535 43.9316 35.9614 43.985C35.8692 44.0383 35.7671 44.0722 35.6613 44.0847C35.5556 44.0971 35.4484 44.0878 35.3463 44.0573C35.2443 44.0268 35.1496 43.9758 35.068 43.9074C34.9864 43.8389 34.9197 43.7545 34.8719 43.6594L32.5281 39.5969C32.4259 39.4181 32.3984 39.2061 32.4517 39.0071C32.5049 38.8081 32.6346 38.6382 32.8125 38.5344V38.5312ZM7.125 13.775L11.1813 16.1187C11.3611 16.2224 11.4924 16.3932 11.5463 16.5936C11.6003 16.794 11.5724 17.0077 11.4688 17.1875C11.3652 17.3673 11.1943 17.4987 10.9939 17.5526C10.7935 17.6065 10.5799 17.5786 10.4 17.475L6.34063 15.1313C6.16078 15.0276 6.02945 14.8568 5.97553 14.6564C5.92161 14.456 5.94952 14.2423 6.05313 14.0625C6.15673 13.8827 6.32753 13.7513 6.52796 13.6974C6.72839 13.6435 6.94515 13.6714 7.125 13.775ZM39.6 32.525L43.6594 34.8687C43.7484 34.92 43.8265 34.9884 43.8891 35.0699C43.9518 35.1513 43.9978 35.2443 44.0245 35.3436C44.0512 35.4428 44.0581 35.5464 44.0447 35.6483C44.0314 35.7502 43.9982 35.8484 43.9469 35.9375C43.8956 36.0266 43.8272 36.1046 43.7458 36.1673C43.6643 36.2299 43.5713 36.2759 43.472 36.3026C43.3728 36.3293 43.2693 36.3362 43.1674 36.3229C43.0655 36.3096 42.9672 36.2763 42.8781 36.225L38.8156 33.8813C38.6358 33.7776 38.5044 33.6068 38.4505 33.4064C38.3966 33.206 38.4245 32.9923 38.5281 32.8125C38.6317 32.6327 38.8025 32.5013 39.003 32.4474C39.2034 32.3935 39.417 32.4214 39.5969 32.525H39.6ZM3.125 25C3.125 24.7928 3.20731 24.5941 3.35382 24.4476C3.50034 24.3011 3.69905 24.2188 3.90625 24.2188H8.59375C8.80095 24.2188 8.99966 24.3011 9.14618 24.4476C9.29269 24.5941 9.375 24.7928 9.375 25C9.375 25.2072 9.29269 25.4059 9.14618 25.5524C8.99966 25.6989 8.80095 25.7812 8.59375 25.7812H3.90625C3.69905 25.7812 3.50034 25.6989 3.35382 25.5524C3.20731 25.4059 3.125 25.2072 3.125 25ZM40.625 25C40.625 24.7928 40.7073 24.5941 40.8538 24.4476C41.0003 24.3011 41.199 24.2188 41.4062 24.2188H46.0938C46.301 24.2188 46.4997 24.3011 46.6462 24.4476C46.7927 24.5941 46.875 24.7928 46.875 25C46.875 25.2072 46.7927 25.4059 46.6462 25.5524C46.4997 25.6989 46.301 25.7812 46.0938 25.7812H41.4062C41.199 25.7812 41.0003 25.6989 40.8538 25.5524C40.7073 25.4059 40.625 25.2072 40.625 25ZM6.34375 34.8719L10.4 32.5281C10.578 32.4387 10.7834 32.4207 10.9743 32.4777C11.1652 32.5348 11.327 32.6626 11.4268 32.835C11.5266 33.0074 11.5567 33.2114 11.5111 33.4053C11.4654 33.5992 11.3474 33.7683 11.1813 33.8781L7.12188 36.2219C6.94386 36.3113 6.73843 36.3293 6.54758 36.2723C6.35672 36.2152 6.19486 36.0874 6.09509 35.915C5.99532 35.7426 5.96517 35.5386 6.01081 35.3447C6.05645 35.1508 6.17755 34.9817 6.34375 34.8719ZM38.8187 16.1219L42.8781 13.7781C42.967 13.726 43.0653 13.692 43.1674 13.678C43.2695 13.6641 43.3733 13.6705 43.4729 13.6968C43.5725 13.7231 43.666 13.7689 43.7478 13.8315C43.8296 13.8941 43.8983 13.9722 43.9498 14.0615C44.0013 14.1507 44.0347 14.2492 44.048 14.3514C44.0612 14.4536 44.0542 14.5574 44.0272 14.6568C44.0002 14.7562 43.9538 14.8493 43.8907 14.9308C43.8276 15.0122 43.7489 15.0803 43.6594 15.1313L39.5969 17.475C39.417 17.5786 39.2034 17.6065 39.003 17.5526C38.8025 17.4987 38.6317 17.3673 38.5281 17.1875C38.4245 17.0077 38.3966 16.794 38.4505 16.5936C38.5044 16.3932 38.6358 16.2224 38.8156 16.1187L38.8187 16.1219ZM14.0625 43.9406C13.8832 43.8373 13.7523 43.667 13.6984 43.4673C13.6445 43.2675 13.672 43.0545 13.775 42.875L16.1187 38.8125C16.2224 38.6327 16.3932 38.5013 16.5936 38.4474C16.794 38.3935 17.0077 38.4214 17.1875 38.525C17.3673 38.6286 17.4987 38.7994 17.5526 38.9998C17.6065 39.2003 17.5786 39.4139 17.475 39.5938L15.1313 43.6563C15.0798 43.7452 15.0114 43.8231 14.9298 43.8855C14.8482 43.9479 14.7551 43.9937 14.6559 44.0201C14.5566 44.0465 14.4531 44.0531 14.3513 44.0394C14.2494 44.0258 14.1513 43.9922 14.0625 43.9406ZM32.8125 11.4656C32.7236 11.4142 32.6457 11.3457 32.5832 11.2642C32.5208 11.1826 32.4751 11.0895 32.4487 10.9902C32.4222 10.891 32.4157 10.7875 32.4293 10.6856C32.4429 10.5838 32.4765 10.4857 32.5281 10.3969L34.8719 6.3375C34.9197 6.24234 34.9864 6.15795 35.068 6.08951C35.1496 6.02108 35.2443 5.97005 35.3463 5.93956C35.4484 5.90907 35.5556 5.89976 35.6613 5.9122C35.7671 5.92464 35.8692 5.95857 35.9614 6.01191C36.0535 6.06525 36.1338 6.13687 36.1973 6.22237C36.2608 6.30787 36.3061 6.40544 36.3305 6.5091C36.3549 6.61276 36.3579 6.72031 36.3392 6.82515C36.3205 6.92999 36.2806 7.0299 36.2219 7.11875L33.8781 11.1813C33.7737 11.3595 33.603 11.4891 33.4034 11.5418C33.2037 11.5945 32.9912 11.5691 32.8125 11.4656ZM20.2937 4.42187L20.7 5.93125C20.7267 6.03036 20.7336 6.13375 20.7203 6.23552C20.707 6.33729 20.6738 6.43545 20.6226 6.52439C20.5192 6.70401 20.3486 6.83519 20.1484 6.88906C19.9483 6.94293 19.7349 6.91509 19.5553 6.81165C19.3757 6.70821 19.2445 6.53766 19.1906 6.3375L18.7844 4.82812C18.7305 4.62797 18.7583 4.41461 18.8618 4.23499C18.9652 4.05536 19.1358 3.92418 19.3359 3.87031C19.5361 3.81644 19.7495 3.84429 19.9291 3.94772C20.1087 4.05116 20.2399 4.22172 20.2937 4.42187ZM30.8125 43.6625L31.2187 45.1719C31.2454 45.271 31.2523 45.3744 31.239 45.4761C31.2258 45.5779 31.1926 45.6761 31.1413 45.765C31.0379 45.9446 30.8673 46.0758 30.6672 46.1297C30.467 46.1836 30.2537 46.1557 30.074 46.0523C29.8944 45.9488 29.7632 45.7783 29.7094 45.5781L29.3031 44.0688C29.2493 43.8686 29.2771 43.6552 29.3805 43.4756C29.484 43.296 29.6545 43.1648 29.8547 43.1109C30.0548 43.0571 30.2682 43.0849 30.4478 43.1883C30.6275 43.2918 30.7586 43.4623 30.8125 43.6625ZM9.53125 9.53125C9.60382 9.45849 9.69003 9.40077 9.78495 9.36139C9.87986 9.322 9.98161 9.30173 10.0844 9.30173C10.1871 9.30173 10.2889 9.322 10.3838 9.36139C10.4787 9.40077 10.5649 9.45849 10.6375 9.53125L11.7406 10.6375C11.8737 10.7863 11.9447 10.9805 11.9391 11.18C11.9335 11.3796 11.8518 11.5694 11.7106 11.7106C11.5694 11.8518 11.3796 11.9335 11.18 11.9391C10.9805 11.9447 10.7863 11.8737 10.6375 11.7406L9.53125 10.6375C9.45849 10.5649 9.40077 10.4787 9.36139 10.3838C9.322 10.2889 9.30173 10.1871 9.30173 10.0844C9.30173 9.98161 9.322 9.87986 9.36139 9.78495C9.40077 9.69003 9.45849 9.60382 9.53125 9.53125ZM38.2594 38.2594C38.4058 38.1134 38.6042 38.0314 38.8109 38.0314C39.0177 38.0314 39.2161 38.1134 39.3625 38.2594L40.4687 39.3625C40.5414 39.4351 40.599 39.5214 40.6383 39.6163C40.6776 39.7112 40.6979 39.8129 40.6979 39.9156C40.6979 40.0183 40.6776 40.1201 40.6383 40.215C40.599 40.3099 40.5414 40.3961 40.4687 40.4687C40.3961 40.5414 40.3099 40.599 40.215 40.6383C40.1201 40.6776 40.0183 40.6979 39.9156 40.6979C39.8129 40.6979 39.7112 40.6776 39.6163 40.6383C39.5214 40.599 39.4351 40.5414 39.3625 40.4687L38.2594 39.3625C38.1134 39.2161 38.0314 39.0177 38.0314 38.8109C38.0314 38.6042 38.1134 38.4058 38.2594 38.2594ZM4.82812 18.7813L6.3375 19.1875C6.53766 19.2414 6.70821 19.3725 6.81165 19.5522C6.91509 19.7318 6.94293 19.9452 6.88906 20.1453C6.83519 20.3455 6.70401 20.516 6.52439 20.6195C6.34476 20.7229 6.13141 20.7507 5.93125 20.6969L4.42187 20.2906C4.3179 20.2687 4.21948 20.2258 4.13265 20.1646C4.04582 20.1033 3.9724 20.025 3.91687 19.9344C3.86134 19.8438 3.82489 19.7428 3.80972 19.6377C3.79456 19.5325 3.80101 19.4253 3.82868 19.3227C3.85635 19.2201 3.90466 19.1243 3.97065 19.041C4.03664 18.9577 4.11893 18.8887 4.21249 18.8384C4.30604 18.788 4.40889 18.7572 4.51474 18.7479C4.6206 18.7386 4.72723 18.7479 4.82812 18.7813ZM44.0688 29.2969L45.5781 29.7031C45.7783 29.757 45.9488 29.8882 46.0523 30.0678C46.1557 30.2474 46.1836 30.4608 46.1297 30.6609C46.0758 30.8611 45.9446 31.0317 45.765 31.1351C45.5854 31.2385 45.372 31.2664 45.1719 31.2125L43.6625 30.8062C43.5634 30.7796 43.4705 30.7336 43.3892 30.6711C43.3078 30.6085 43.2396 30.5305 43.1883 30.4416C43.1371 30.3526 43.1039 30.2545 43.0907 30.1527C43.0774 30.0509 43.0843 29.9475 43.1109 29.8484C43.1376 29.7493 43.1835 29.6564 43.2461 29.5751C43.3087 29.4937 43.3867 29.4255 43.4756 29.3743C43.5646 29.3231 43.6627 29.2899 43.7645 29.2766C43.8663 29.2633 43.9696 29.2702 44.0688 29.2969ZM3.87187 30.6594C3.81834 30.4596 3.84617 30.2468 3.94926 30.0676C4.05236 29.8883 4.22231 29.7573 4.42187 29.7031L5.93125 29.2969C6.03036 29.2702 6.13375 29.2633 6.23552 29.2766C6.33729 29.2899 6.43545 29.3231 6.52439 29.3743C6.61333 29.4255 6.69131 29.4937 6.75388 29.5751C6.81645 29.6564 6.86239 29.7493 6.88906 29.8484C6.91574 29.9475 6.92263 30.0509 6.90935 30.1527C6.89607 30.2545 6.86287 30.3526 6.81165 30.4416C6.76043 30.5305 6.6922 30.6085 6.61084 30.6711C6.52949 30.7336 6.43661 30.7796 6.3375 30.8062L4.82812 31.2125C4.62797 31.2659 4.41479 31.2377 4.23547 31.1339C4.05614 31.0302 3.92536 30.8595 3.87187 30.6594ZM43.1125 20.1438C43.059 19.944 43.0868 19.7312 43.1899 19.552C43.293 19.3727 43.4629 19.2417 43.6625 19.1875L45.1719 18.7813C45.372 18.7274 45.5854 18.7552 45.765 18.8587C45.9446 18.9621 46.0758 19.1327 46.1297 19.3328C46.1836 19.533 46.1557 19.7463 46.0523 19.926C45.9488 20.1056 45.7783 20.2368 45.5781 20.2906L44.0688 20.6969C43.8686 20.7503 43.6554 20.722 43.4761 20.6183C43.2968 20.5146 43.166 20.3439 43.1125 20.1438ZM9.51563 40.45C9.36788 40.2943 9.27821 40.0926 9.26171 39.8786C9.24521 39.6646 9.30287 39.4515 9.425 39.275L21.6063 21.8C21.6589 21.7245 21.7245 21.6589 21.8 21.6063L39.3063 9.46875C39.4724 9.32625 39.6863 9.25174 39.905 9.26012C40.1238 9.26849 40.3313 9.35914 40.4861 9.51393C40.6409 9.66872 40.7315 9.87624 40.7399 10.095C40.7483 10.3137 40.6737 10.5276 40.5313 10.6937L28.3938 28.2C28.3411 28.2755 28.2755 28.3411 28.2 28.3938L10.725 40.575C10.5451 40.7 10.327 40.7579 10.1088 40.7385C9.89065 40.7191 9.68621 40.6236 9.53125 40.4687L9.51563 40.45ZM19.3375 46.1281C19.1379 46.074 18.968 45.9429 18.8649 45.7637C18.7618 45.5844 18.734 45.3716 18.7875 45.1719L19.1906 43.6625C19.2445 43.4623 19.3757 43.2918 19.5553 43.1883C19.7349 43.0849 19.9483 43.0571 20.1484 43.1109C20.3486 43.1648 20.5192 43.296 20.6226 43.4756C20.726 43.6552 20.7539 43.8686 20.7 44.0688L20.2937 45.5781C20.2396 45.7777 20.1085 45.9476 19.9293 46.0507C19.75 46.1538 19.5372 46.1817 19.3375 46.1281ZM29.8531 6.8875C29.653 6.83402 29.4823 6.70323 29.3786 6.52391C29.2748 6.34458 29.2466 6.1314 29.3 5.93125L29.7062 4.42187C29.7329 4.32277 29.7789 4.22989 29.8414 4.14853C29.904 4.06718 29.982 3.99894 30.0709 3.94772C30.1599 3.89651 30.258 3.86331 30.3598 3.85003C30.4616 3.83674 30.565 3.84364 30.6641 3.87031C30.7632 3.89699 30.8561 3.94292 30.9374 4.00549C31.0188 4.06806 31.087 4.14605 31.1382 4.23499C31.1894 4.32393 31.2226 4.42209 31.2359 4.52386C31.2492 4.62563 31.2423 4.72902 31.2156 4.82812L30.8094 6.3375C30.7552 6.53706 30.6242 6.70702 30.4449 6.81011C30.2657 6.91321 30.0529 6.94104 29.8531 6.8875Z" fill="#EF233C"/>
<path d="M25 50C31.6304 50 37.9893 47.3661 42.6777 42.6777C47.3661 37.9893 50 31.6304 50 25C50 18.3696 47.3661 12.0107 42.6777 7.32233C37.9893 2.63392 31.6304 0 25 0C18.3696 0 12.0107 2.63392 7.32233 7.32233C2.63392 12.0107 0 18.3696 0 25C0 31.6304 2.63392 37.9893 7.32233 42.6777C12.0107 47.3661 18.3696 50 25 50ZM25.7812 3.90625V8.59375C25.7812 8.80095 25.6989 8.99966 25.5524 9.14618C25.4059 9.29269 25.2072 9.375 25 9.375C24.7928 9.375 24.5941 9.29269 24.4476 9.14618C24.3011 8.99966 24.2188 8.80095 24.2188 8.59375V3.90625C24.2188 3.69905 24.3011 3.50034 24.4476 3.35382C24.5941 3.20731 24.7928 3.125 25 3.125C25.2072 3.125 25.4059 3.20731 25.5524 3.35382C25.6989 3.50034 25.7812 3.69905 25.7812 3.90625ZM25.7812 41.4062V46.0938C25.7812 46.301 25.6989 46.4997 25.5524 46.6462C25.4059 46.7927 25.2072 46.875 25 46.875C24.7928 46.875 24.5941 46.7927 24.4476 46.6462C24.3011 46.4997 24.2188 46.301 24.2188 46.0938V41.4062C24.2188 41.199 24.3011 41.0003 24.4476 40.8538C24.5941 40.7073 24.7928 40.625 25 40.625C25.2072 40.625 25.4059 40.7073 25.5524 40.8538C25.6989 41.0003 25.7812 41.199 25.7812 41.4062ZM14.0625 6.05625C14.1513 6.00465 14.2494 5.97107 14.3513 5.95743C14.4531 5.94379 14.5566 5.95037 14.6559 5.97679C14.7551 6.0032 14.8482 6.04893 14.9298 6.11136C15.0114 6.1738 15.0798 6.2517 15.1313 6.34063L17.475 10.4031C17.5786 10.583 17.6065 10.7966 17.5526 10.997C17.4987 11.1975 17.3673 11.3683 17.1875 11.4719C17.0077 11.5755 16.794 11.6034 16.5936 11.5495C16.3932 11.4956 16.2224 11.3642 16.1187 11.1844L13.775 7.12188C13.672 6.94239 13.6445 6.72939 13.6984 6.52961C13.7523 6.32982 13.8832 6.15959 14.0625 6.05625ZM32.8125 38.5312C32.992 38.4283 33.205 38.4007 33.4048 38.4546C33.6046 38.5085 33.7748 38.6395 33.8781 38.8187L36.2219 42.8781C36.2806 42.967 36.3205 43.0669 36.3392 43.1717C36.3579 43.2766 36.3549 43.3841 36.3305 43.4878C36.3061 43.5914 36.2608 43.689 36.1973 43.7745C36.1338 43.86 36.0535 43.9316 35.9614 43.985C35.8692 44.0383 35.7671 44.0722 35.6613 44.0847C35.5556 44.0971 35.4484 44.0878 35.3463 44.0573C35.2443 44.0268 35.1496 43.9758 35.068 43.9074C34.9864 43.8389 34.9197 43.7545 34.8719 43.6594L32.5281 39.5969C32.4259 39.4181 32.3984 39.2061 32.4517 39.0071C32.5049 38.8081 32.6346 38.6382 32.8125 38.5344V38.5312ZM7.125 13.775L11.1813 16.1187C11.3611 16.2224 11.4924 16.3932 11.5463 16.5936C11.6003 16.794 11.5724 17.0077 11.4688 17.1875C11.3652 17.3673 11.1943 17.4987 10.9939 17.5526C10.7935 17.6065 10.5799 17.5786 10.4 17.475L6.34063 15.1313C6.16078 15.0276 6.02945 14.8568 5.97553 14.6564C5.92161 14.456 5.94952 14.2423 6.05313 14.0625C6.15673 13.8827 6.32753 13.7513 6.52796 13.6974C6.72839 13.6435 6.94515 13.6714 7.125 13.775ZM39.6 32.525L43.6594 34.8687C43.7484 34.92 43.8265 34.9884 43.8891 35.0699C43.9518 35.1513 43.9978 35.2443 44.0245 35.3436C44.0512 35.4428 44.0581 35.5464 44.0447 35.6483C44.0314 35.7502 43.9982 35.8484 43.9469 35.9375C43.8956 36.0266 43.8272 36.1046 43.7458 36.1673C43.6643 36.2299 43.5713 36.2759 43.472 36.3026C43.3728 36.3293 43.2693 36.3362 43.1674 36.3229C43.0655 36.3096 42.9672 36.2763 42.8781 36.225L38.8156 33.8813C38.6358 33.7776 38.5044 33.6068 38.4505 33.4064C38.3966 33.206 38.4245 32.9923 38.5281 32.8125C38.6317 32.6327 38.8025 32.5013 39.003 32.4474C39.2034 32.3935 39.417 32.4214 39.5969 32.525H39.6ZM3.125 25C3.125 24.7928 3.20731 24.5941 3.35382 24.4476C3.50034 24.3011 3.69905 24.2188 3.90625 24.2188H8.59375C8.80095 24.2188 8.99966 24.3011 9.14618 24.4476C9.29269 24.5941 9.375 24.7928 9.375 25C9.375 25.2072 9.29269 25.4059 9.14618 25.5524C8.99966 25.6989 8.80095 25.7812 8.59375 25.7812H3.90625C3.69905 25.7812 3.50034 25.6989 3.35382 25.5524C3.20731 25.4059 3.125 25.2072 3.125 25ZM40.625 25C40.625 24.7928 40.7073 24.5941 40.8538 24.4476C41.0003 24.3011 41.199 24.2188 41.4062 24.2188H46.0938C46.301 24.2188 46.4997 24.3011 46.6462 24.4476C46.7927 24.5941 46.875 24.7928 46.875 25C46.875 25.2072 46.7927 25.4059 46.6462 25.5524C46.4997 25.6989 46.301 25.7812 46.0938 25.7812H41.4062C41.199 25.7812 41.0003 25.6989 40.8538 25.5524C40.7073 25.4059 40.625 25.2072 40.625 25ZM6.34375 34.8719L10.4 32.5281C10.578 32.4387 10.7834 32.4207 10.9743 32.4777C11.1652 32.5348 11.327 32.6626 11.4268 32.835C11.5266 33.0074 11.5567 33.2114 11.5111 33.4053C11.4654 33.5992 11.3474 33.7683 11.1813 33.8781L7.12188 36.2219C6.94386 36.3113 6.73843 36.3293 6.54758 36.2723C6.35672 36.2152 6.19486 36.0874 6.09509 35.915C5.99532 35.7426 5.96517 35.5386 6.01081 35.3447C6.05645 35.1508 6.17755 34.9817 6.34375 34.8719ZM38.8187 16.1219L42.8781 13.7781C42.967 13.726 43.0653 13.692 43.1674 13.678C43.2695 13.6641 43.3733 13.6705 43.4729 13.6968C43.5725 13.7231 43.666 13.7689 43.7478 13.8315C43.8296 13.8941 43.8983 13.9722 43.9498 14.0615C44.0013 14.1507 44.0347 14.2492 44.048 14.3514C44.0612 14.4536 44.0542 14.5574 44.0272 14.6568C44.0002 14.7562 43.9538 14.8493 43.8907 14.9308C43.8276 15.0122 43.7489 15.0803 43.6594 15.1313L39.5969 17.475C39.417 17.5786 39.2034 17.6065 39.003 17.5526C38.8025 17.4987 38.6317 17.3673 38.5281 17.1875C38.4245 17.0077 38.3966 16.794 38.4505 16.5936C38.5044 16.3932 38.6358 16.2224 38.8156 16.1187L38.8187 16.1219ZM14.0625 43.9406C13.8832 43.8373 13.7523 43.667 13.6984 43.4673C13.6445 43.2675 13.672 43.0545 13.775 42.875L16.1187 38.8125C16.2224 38.6327 16.3932 38.5013 16.5936 38.4474C16.794 38.3935 17.0077 38.4214 17.1875 38.525C17.3673 38.6286 17.4987 38.7994 17.5526 38.9998C17.6065 39.2003 17.5786 39.4139 17.475 39.5938L15.1313 43.6563C15.0798 43.7452 15.0114 43.8231 14.9298 43.8855C14.8482 43.9479 14.7551 43.9937 14.6559 44.0201C14.5566 44.0465 14.4531 44.0531 14.3513 44.0394C14.2494 44.0258 14.1513 43.9922 14.0625 43.9406ZM32.8125 11.4656C32.7236 11.4142 32.6457 11.3457 32.5832 11.2642C32.5208 11.1826 32.4751 11.0895 32.4487 10.9902C32.4222 10.891 32.4157 10.7875 32.4293 10.6856C32.4429 10.5838 32.4765 10.4857 32.5281 10.3969L34.8719 6.3375C34.9197 6.24234 34.9864 6.15795 35.068 6.08951C35.1496 6.02108 35.2443 5.97005 35.3463 5.93956C35.4484 5.90907 35.5556 5.89976 35.6613 5.9122C35.7671 5.92464 35.8692 5.95857 35.9614 6.01191C36.0535 6.06525 36.1338 6.13687 36.1973 6.22237C36.2608 6.30787 36.3061 6.40544 36.3305 6.5091C36.3549 6.61276 36.3579 6.72031 36.3392 6.82515C36.3205 6.92999 36.2806 7.0299 36.2219 7.11875L33.8781 11.1813C33.7737 11.3595 33.603 11.4891 33.4034 11.5418C33.2037 11.5945 32.9912 11.5691 32.8125 11.4656ZM20.2937 4.42187L20.7 5.93125C20.7267 6.03036 20.7336 6.13375 20.7203 6.23552C20.707 6.33729 20.6738 6.43545 20.6226 6.52439C20.5192 6.70401 20.3486 6.83519 20.1484 6.88906C19.9483 6.94293 19.7349 6.91509 19.5553 6.81165C19.3757 6.70821 19.2445 6.53766 19.1906 6.3375L18.7844 4.82812C18.7305 4.62797 18.7583 4.41461 18.8618 4.23499C18.9652 4.05536 19.1358 3.92418 19.3359 3.87031C19.5361 3.81644 19.7495 3.84429 19.9291 3.94772C20.1087 4.05116 20.2399 4.22172 20.2937 4.42187ZM30.8125 43.6625L31.2187 45.1719C31.2454 45.271 31.2523 45.3744 31.239 45.4761C31.2258 45.5779 31.1926 45.6761 31.1413 45.765C31.0379 45.9446 30.8673 46.0758 30.6672 46.1297C30.467 46.1836 30.2537 46.1557 30.074 46.0523C29.8944 45.9488 29.7632 45.7783 29.7094 45.5781L29.3031 44.0688C29.2493 43.8686 29.2771 43.6552 29.3805 43.4756C29.484 43.296 29.6545 43.1648 29.8547 43.1109C30.0548 43.0571 30.2682 43.0849 30.4478 43.1883C30.6275 43.2918 30.7586 43.4623 30.8125 43.6625ZM9.53125 9.53125C9.60382 9.45849 9.69003 9.40077 9.78495 9.36139C9.87986 9.322 9.98161 9.30173 10.0844 9.30173C10.1871 9.30173 10.2889 9.322 10.3838 9.36139C10.4787 9.40077 10.5649 9.45849 10.6375 9.53125L11.7406 10.6375C11.8737 10.7863 11.9447 10.9805 11.9391 11.18C11.9335 11.3796 11.8518 11.5694 11.7106 11.7106C11.5694 11.8518 11.3796 11.9335 11.18 11.9391C10.9805 11.9447 10.7863 11.8737 10.6375 11.7406L9.53125 10.6375C9.45849 10.5649 9.40077 10.4787 9.36139 10.3838C9.322 10.2889 9.30173 10.1871 9.30173 10.0844C9.30173 9.98161 9.322 9.87986 9.36139 9.78495C9.40077 9.69003 9.45849 9.60382 9.53125 9.53125ZM38.2594 38.2594C38.4058 38.1134 38.6042 38.0314 38.8109 38.0314C39.0177 38.0314 39.2161 38.1134 39.3625 38.2594L40.4687 39.3625C40.5414 39.4351 40.599 39.5214 40.6383 39.6163C40.6776 39.7112 40.6979 39.8129 40.6979 39.9156C40.6979 40.0183 40.6776 40.1201 40.6383 40.215C40.599 40.3099 40.5414 40.3961 40.4687 40.4687C40.3961 40.5414 40.3099 40.599 40.215 40.6383C40.1201 40.6776 40.0183 40.6979 39.9156 40.6979C39.8129 40.6979 39.7112 40.6776 39.6163 40.6383C39.5214 40.599 39.4351 40.5414 39.3625 40.4687L38.2594 39.3625C38.1134 39.2161 38.0314 39.0177 38.0314 38.8109C38.0314 38.6042 38.1134 38.4058 38.2594 38.2594ZM4.82812 18.7813L6.3375 19.1875C6.53766 19.2414 6.70821 19.3725 6.81165 19.5522C6.91509 19.7318 6.94293 19.9452 6.88906 20.1453C6.83519 20.3455 6.70401 20.516 6.52439 20.6195C6.34476 20.7229 6.13141 20.7507 5.93125 20.6969L4.42187 20.2906C4.3179 20.2687 4.21948 20.2258 4.13265 20.1646C4.04582 20.1033 3.9724 20.025 3.91687 19.9344C3.86134 19.8438 3.82489 19.7428 3.80972 19.6377C3.79456 19.5325 3.80101 19.4253 3.82868 19.3227C3.85635 19.2201 3.90466 19.1243 3.97065 19.041C4.03664 18.9577 4.11893 18.8887 4.21249 18.8384C4.30604 18.788 4.40889 18.7572 4.51474 18.7479C4.6206 18.7386 4.72723 18.7479 4.82812 18.7813ZM44.0688 29.2969L45.5781 29.7031C45.7783 29.757 45.9488 29.8882 46.0523 30.0678C46.1557 30.2474 46.1836 30.4608 46.1297 30.6609C46.0758 30.8611 45.9446 31.0317 45.765 31.1351C45.5854 31.2385 45.372 31.2664 45.1719 31.2125L43.6625 30.8062C43.5634 30.7796 43.4705 30.7336 43.3892 30.6711C43.3078 30.6085 43.2396 30.5305 43.1883 30.4416C43.1371 30.3526 43.1039 30.2545 43.0907 30.1527C43.0774 30.0509 43.0843 29.9475 43.1109 29.8484C43.1376 29.7493 43.1835 29.6564 43.2461 29.5751C43.3087 29.4937 43.3867 29.4255 43.4756 29.3743C43.5646 29.3231 43.6627 29.2899 43.7645 29.2766C43.8663 29.2633 43.9696 29.2702 44.0688 29.2969ZM3.87187 30.6594C3.81834 30.4596 3.84617 30.2468 3.94926 30.0676C4.05236 29.8883 4.22231 29.7573 4.42187 29.7031L5.93125 29.2969C6.03036 29.2702 6.13375 29.2633 6.23552 29.2766C6.33729 29.2899 6.43545 29.3231 6.52439 29.3743C6.61333 29.4255 6.69131 29.4937 6.75388 29.5751C6.81645 29.6564 6.86239 29.7493 6.88906 29.8484C6.91574 29.9475 6.92263 30.0509 6.90935 30.1527C6.89607 30.2545 6.86287 30.3526 6.81165 30.4416C6.76043 30.5305 6.6922 30.6085 6.61084 30.6711C6.52949 30.7336 6.43661 30.7796 6.3375 30.8062L4.82812 31.2125C4.62797 31.2659 4.41479 31.2377 4.23547 31.1339C4.05614 31.0302 3.92536 30.8595 3.87187 30.6594ZM43.1125 20.1438C43.059 19.944 43.0868 19.7312 43.1899 19.552C43.293 19.3727 43.4629 19.2417 43.6625 19.1875L45.1719 18.7813C45.372 18.7274 45.5854 18.7552 45.765 18.8587C45.9446 18.9621 46.0758 19.1327 46.1297 19.3328C46.1836 19.533 46.1557 19.7463 46.0523 19.926C45.9488 20.1056 45.7783 20.2368 45.5781 20.2906L44.0688 20.6969C43.8686 20.7503 43.6554 20.722 43.4761 20.6183C43.2968 20.5146 43.166 20.3439 43.1125 20.1438ZM9.51563 40.45C9.36788 40.2943 9.27821 40.0926 9.26171 39.8786C9.24521 39.6646 9.30287 39.4515 9.425 39.275L21.6063 21.8C21.6589 21.7245 21.7245 21.6589 21.8 21.6063L39.3063 9.46875C39.4724 9.32625 39.6863 9.25174 39.905 9.26012C40.1238 9.26849 40.3313 9.35914 40.4861 9.51393C40.6409 9.66872 40.7315 9.87624 40.7399 10.095C40.7483 10.3137 40.6737 10.5276 40.5313 10.6937L28.3938 28.2C28.3411 28.2755 28.2755 28.3411 28.2 28.3938L10.725 40.575C10.5451 40.7 10.327 40.7579 10.1088 40.7385C9.89065 40.7191 9.68621 40.6236 9.53125 40.4687L9.51563 40.45ZM19.3375 46.1281C19.1379 46.074 18.968 45.9429 18.8649 45.7637C18.7618 45.5844 18.734 45.3716 18.7875 45.1719L19.1906 43.6625C19.2445 43.4623 19.3757 43.2918 19.5553 43.1883C19.7349 43.0849 19.9483 43.0571 20.1484 43.1109C20.3486 43.1648 20.5192 43.296 20.6226 43.4756C20.726 43.6552 20.7539 43.8686 20.7 44.0688L20.2937 45.5781C20.2396 45.7777 20.1085 45.9476 19.9293 46.0507C19.75 46.1538 19.5372 46.1817 19.3375 46.1281ZM29.8531 6.8875C29.653 6.83402 29.4823 6.70323 29.3786 6.52391C29.2748 6.34458 29.2466 6.1314 29.3 5.93125L29.7062 4.42187C29.7329 4.32277 29.7789 4.22989 29.8414 4.14853C29.904 4.06718 29.982 3.99894 30.0709 3.94772C30.1599 3.89651 30.258 3.86331 30.3598 3.85003C30.4616 3.83674 30.565 3.84364 30.6641 3.87031C30.7632 3.89699 30.8561 3.94292 30.9374 4.00549C31.0188 4.06806 31.087 4.14605 31.1382 4.23499C31.1894 4.32393 31.2226 4.42209 31.2359 4.52386C31.2492 4.62563 31.2423 4.72902 31.2156 4.82812L30.8094 6.3375C30.7552 6.53706 30.6242 6.70702 30.4449 6.81011C30.2657 6.91321 30.0529 6.94104 29.8531 6.8875Z" fill="url(#paint0_linear_241_4)" fill-opacity="0.75"/>
</g>
<defs>
<linearGradient id="paint0_linear_241_4" x1="25" y1="0" x2="25" y2="50" gradientUnits="userSpaceOnUse">
<stop/>
<stop offset="1" stop-opacity="0"/>
</linearGradient>
<clipPath id="clip0_241_4">
<rect width="50" height="50" fill="white"/>
</clipPath>
</defs>
</svg>
