<svg width="111" height="111" viewBox="0 0 111 111" fill="none" xmlns="http://www.w3.org/2000/svg">
<g clip-path="url(#clip0_239_46)">
<path d="M54.0296 16.2337L48.4865 25.0998C48.3234 25.3623 48.2333 25.6636 48.2256 25.9726C48.2179 26.2816 48.293 26.587 48.443 26.8572C48.5929 27.1274 48.8124 27.3527 49.0786 27.5097C49.3449 27.6666 49.6482 27.7496 49.9573 27.75H61.0434C61.3525 27.7496 61.6558 27.6666 61.9221 27.5097C62.1883 27.3527 62.4078 27.1274 62.5578 26.8572C62.7077 26.587 62.7828 26.2816 62.7751 25.9726C62.7674 25.6636 62.6774 25.3623 62.5142 25.0998L56.9711 16.2268C56.8152 15.9773 56.5984 15.7716 56.3411 15.629C56.0839 15.4864 55.7945 15.4116 55.5004 15.4116C55.2062 15.4116 54.9169 15.4864 54.6596 15.629C54.4023 15.7716 54.1855 15.9843 54.0296 16.2337ZM54.0296 94.7662L48.4865 85.907C48.3216 85.6444 48.23 85.3424 48.2214 85.0324C48.2128 84.7224 48.2875 84.4157 48.4377 84.1444C48.5879 83.8731 48.8081 83.647 49.0753 83.4897C49.3426 83.3324 49.6472 83.2496 49.9573 83.25H61.0434C61.3535 83.2496 61.6581 83.3324 61.9254 83.4897C62.1926 83.647 62.4128 83.8731 62.563 84.1444C62.7132 84.4157 62.7879 84.7224 62.7793 85.0324C62.7707 85.3424 62.6792 85.6444 62.5142 85.907L56.9711 94.7732C56.8152 95.0226 56.5984 95.2283 56.3411 95.3709C56.0839 95.5135 55.7945 95.5883 55.5004 95.5883C55.2062 95.5883 54.9169 95.5135 54.6596 95.3709C54.4023 95.2283 54.1855 95.0157 54.0296 94.7662ZM25.0933 62.5068L16.2341 56.9777C15.9847 56.8218 15.779 56.605 15.6364 56.3477C15.4938 56.0904 15.4189 55.8011 15.4189 55.5069C15.4189 55.2128 15.4938 54.9234 15.6364 54.6661C15.779 54.4089 15.9847 54.1921 16.2341 54.0362L25.1002 48.4931C25.3622 48.3302 25.6629 48.2402 25.9713 48.2322C26.2796 48.2242 26.5846 48.2987 26.8546 48.4478C27.1246 48.597 27.35 48.8154 27.5074 49.0807C27.6649 49.346 27.7487 49.6484 27.7504 49.9569V61.05C27.7507 61.3601 27.668 61.6647 27.5107 61.9319C27.3533 62.1992 27.1272 62.4194 26.8559 62.5696C26.5846 62.7198 26.2779 62.7944 25.9679 62.7859C25.6579 62.7773 25.3559 62.6857 25.0933 62.5207V62.5068ZM94.7666 56.9707L85.9074 62.5138C85.6448 62.6788 85.3428 62.7703 85.0328 62.7789C84.7228 62.7875 84.4161 62.7128 84.1448 62.5626C83.8735 62.4124 83.6474 62.1923 83.4901 61.925C83.3327 61.6577 83.25 61.3532 83.2504 61.043V49.95C83.25 49.6398 83.3327 49.3353 83.4901 49.068C83.6474 48.8008 83.8735 48.5806 84.1448 48.4304C84.4161 48.2802 84.7228 48.2055 85.0328 48.2141C85.3428 48.2227 85.6448 48.3142 85.9074 48.4792L94.7735 54.0223C95.023 54.1782 95.2287 54.395 95.3713 54.6523C95.5139 54.9095 95.5887 55.1989 95.5887 55.493C95.5887 55.7872 95.5139 56.0765 95.3713 56.3338C95.2287 56.5911 95.023 56.8079 94.7735 56.9638L94.7666 56.9707Z" fill="#EF233C"/>
<path d="M45.0938 0C42.3338 0 39.687 1.09637 37.7354 3.04792C35.7839 4.99947 34.6875 7.64634 34.6875 10.4062V31.2188C34.6875 32.1387 34.322 33.021 33.6715 33.6715C33.021 34.322 32.1387 34.6875 31.2188 34.6875H10.4062C7.64634 34.6875 4.99947 35.7839 3.04792 37.7354C1.09637 39.687 0 42.3338 0 45.0938L0 65.9062C0 68.6662 1.09637 71.313 3.04792 73.2646C4.99947 75.2161 7.64634 76.3125 10.4062 76.3125H31.2188C32.1387 76.3125 33.021 76.678 33.6715 77.3285C34.322 77.979 34.6875 78.8613 34.6875 79.7812V100.594C34.6875 103.354 35.7839 106.001 37.7354 107.952C39.687 109.904 42.3338 111 45.0938 111H65.9062C68.6662 111 71.313 109.904 73.2646 107.952C75.2161 106.001 76.3125 103.354 76.3125 100.594V79.7812C76.3125 78.8613 76.678 77.979 77.3285 77.3285C77.979 76.678 78.8613 76.3125 79.7812 76.3125H100.594C103.354 76.3125 106.001 75.2161 107.952 73.2646C109.904 71.313 111 68.6662 111 65.9062V45.0938C111 42.3338 109.904 39.687 107.952 37.7354C106.001 35.7839 103.354 34.6875 100.594 34.6875H79.7812C78.8613 34.6875 77.979 34.322 77.3285 33.6715C76.678 33.021 76.3125 32.1387 76.3125 31.2188V10.4062C76.3125 7.64634 75.2161 4.99947 73.2646 3.04792C71.313 1.09637 68.6662 0 65.9062 0L45.0938 0ZM41.625 10.4062C41.625 9.48628 41.9905 8.60399 42.641 7.95347C43.2915 7.30296 44.1738 6.9375 45.0938 6.9375H65.9062C66.8262 6.9375 67.7085 7.30296 68.359 7.95347C69.0095 8.60399 69.375 9.48628 69.375 10.4062V31.2188C69.375 33.9787 70.4714 36.6255 72.4229 38.5771C74.3745 40.5286 77.0213 41.625 79.7812 41.625H100.594C101.514 41.625 102.396 41.9905 103.047 42.641C103.697 43.2915 104.062 44.1738 104.062 45.0938V65.9062C104.062 66.8262 103.697 67.7085 103.047 68.359C102.396 69.0095 101.514 69.375 100.594 69.375H79.7812C77.0213 69.375 74.3745 70.4714 72.4229 72.4229C70.4714 74.3745 69.375 77.0213 69.375 79.7812V100.594C69.375 101.514 69.0095 102.396 68.359 103.047C67.7085 103.697 66.8262 104.062 65.9062 104.062H45.0938C44.1738 104.062 43.2915 103.697 42.641 103.047C41.9905 102.396 41.625 101.514 41.625 100.594V79.7812C41.625 77.0213 40.5286 74.3745 38.5771 72.4229C36.6255 70.4714 33.9787 69.375 31.2188 69.375H10.4062C9.48628 69.375 8.60399 69.0095 7.95347 68.359C7.30296 67.7085 6.9375 66.8262 6.9375 65.9062V45.0938C6.9375 44.1738 7.30296 43.2915 7.95347 42.641C8.60399 41.9905 9.48628 41.625 10.4062 41.625H31.2188C33.9787 41.625 36.6255 40.5286 38.5771 38.5771C40.5286 36.6255 41.625 33.9787 41.625 31.2188V10.4062Z" fill="#EF233C"/>
<path d="M45.0938 0C42.3338 0 39.687 1.09637 37.7354 3.04792C35.7839 4.99947 34.6875 7.64634 34.6875 10.4062V31.2188C34.6875 32.1387 34.322 33.021 33.6715 33.6715C33.021 34.322 32.1387 34.6875 31.2188 34.6875H10.4062C7.64634 34.6875 4.99947 35.7839 3.04792 37.7354C1.09637 39.687 0 42.3338 0 45.0938L0 65.9062C0 68.6662 1.09637 71.313 3.04792 73.2646C4.99947 75.2161 7.64634 76.3125 10.4062 76.3125H31.2188C32.1387 76.3125 33.021 76.678 33.6715 77.3285C34.322 77.979 34.6875 78.8613 34.6875 79.7812V100.594C34.6875 103.354 35.7839 106.001 37.7354 107.952C39.687 109.904 42.3338 111 45.0938 111H65.9062C68.6662 111 71.313 109.904 73.2646 107.952C75.2161 106.001 76.3125 103.354 76.3125 100.594V79.7812C76.3125 78.8613 76.678 77.979 77.3285 77.3285C77.979 76.678 78.8613 76.3125 79.7812 76.3125H100.594C103.354 76.3125 106.001 75.2161 107.952 73.2646C109.904 71.313 111 68.6662 111 65.9062V45.0938C111 42.3338 109.904 39.687 107.952 37.7354C106.001 35.7839 103.354 34.6875 100.594 34.6875H79.7812C78.8613 34.6875 77.979 34.322 77.3285 33.6715C76.678 33.021 76.3125 32.1387 76.3125 31.2188V10.4062C76.3125 7.64634 75.2161 4.99947 73.2646 3.04792C71.313 1.09637 68.6662 0 65.9062 0L45.0938 0ZM41.625 10.4062C41.625 9.48628 41.9905 8.60399 42.641 7.95347C43.2915 7.30296 44.1738 6.9375 45.0938 6.9375H65.9062C66.8262 6.9375 67.7085 7.30296 68.359 7.95347C69.0095 8.60399 69.375 9.48628 69.375 10.4062V31.2188C69.375 33.9787 70.4714 36.6255 72.4229 38.5771C74.3745 40.5286 77.0213 41.625 79.7812 41.625H100.594C101.514 41.625 102.396 41.9905 103.047 42.641C103.697 43.2915 104.062 44.1738 104.062 45.0938V65.9062C104.062 66.8262 103.697 67.7085 103.047 68.359C102.396 69.0095 101.514 69.375 100.594 69.375H79.7812C77.0213 69.375 74.3745 70.4714 72.4229 72.4229C70.4714 74.3745 69.375 77.0213 69.375 79.7812V100.594C69.375 101.514 69.0095 102.396 68.359 103.047C67.7085 103.697 66.8262 104.062 65.9062 104.062H45.0938C44.1738 104.062 43.2915 103.697 42.641 103.047C41.9905 102.396 41.625 101.514 41.625 100.594V79.7812C41.625 77.0213 40.5286 74.3745 38.5771 72.4229C36.6255 70.4714 33.9787 69.375 31.2188 69.375H10.4062C9.48628 69.375 8.60399 69.0095 7.95347 68.359C7.30296 67.7085 6.9375 66.8262 6.9375 65.9062V45.0938C6.9375 44.1738 7.30296 43.2915 7.95347 42.641C8.60399 41.9905 9.48628 41.625 10.4062 41.625H31.2188C33.9787 41.625 36.6255 40.5286 38.5771 38.5771C40.5286 36.6255 41.625 33.9787 41.625 31.2188V10.4062Z" fill="url(#paint0_linear_239_46)"/>
</g>
<defs>
<linearGradient id="paint0_linear_239_46" x1="55.5" y1="0" x2="55.5" y2="111" gradientUnits="userSpaceOnUse">
<stop stop-opacity="0"/>
<stop offset="1"/>
</linearGradient>
<clipPath id="clip0_239_46">
<rect width="111" height="111" fill="white"/>
</clipPath>
</defs>
</svg>
