<svg width="111" height="111" viewBox="0 0 111 111" fill="none" xmlns="http://www.w3.org/2000/svg">
<path fill-rule="evenodd" clip-rule="evenodd" d="M76.3125 104.062C83.6723 104.062 90.7306 101.139 95.9347 95.9347C101.139 90.7306 104.062 83.6723 104.062 76.3125C104.062 68.9527 101.139 61.8944 95.9347 56.6903C90.7306 51.4862 83.6723 48.5625 76.3125 48.5625C68.9527 48.5625 61.8944 51.4862 56.6903 56.6903C51.4862 61.8944 48.5625 68.9527 48.5625 76.3125C48.5625 83.6723 51.4862 90.7306 56.6903 95.9347C61.8944 101.139 68.9527 104.062 76.3125 104.062ZM111 76.3125C111 85.5122 107.345 94.3351 100.84 100.84C94.3351 107.345 85.5122 111 76.3125 111C67.1128 111 58.2899 107.345 51.7847 100.84C45.2796 94.3351 41.625 85.5122 41.625 76.3125C41.625 67.1128 45.2796 58.2899 51.7847 51.7847C58.2899 45.2796 67.1128 41.625 76.3125 41.625C85.5122 41.625 94.3351 45.2796 100.84 51.7847C107.345 58.2899 111 67.1128 111 76.3125Z" fill="#EF233C"/>
<path fill-rule="evenodd" clip-rule="evenodd" d="M76.3125 104.062C83.6723 104.062 90.7306 101.139 95.9347 95.9347C101.139 90.7306 104.062 83.6723 104.062 76.3125C104.062 68.9527 101.139 61.8944 95.9347 56.6903C90.7306 51.4862 83.6723 48.5625 76.3125 48.5625C68.9527 48.5625 61.8944 51.4862 56.6903 56.6903C51.4862 61.8944 48.5625 68.9527 48.5625 76.3125C48.5625 83.6723 51.4862 90.7306 56.6903 95.9347C61.8944 101.139 68.9527 104.062 76.3125 104.062ZM111 76.3125C111 85.5122 107.345 94.3351 100.84 100.84C94.3351 107.345 85.5122 111 76.3125 111C67.1128 111 58.2899 107.345 51.7847 100.84C45.2796 94.3351 41.625 85.5122 41.625 76.3125C41.625 67.1128 45.2796 58.2899 51.7847 51.7847C58.2899 45.2796 67.1128 41.625 76.3125 41.625C85.5122 41.625 94.3351 45.2796 100.84 51.7847C107.345 58.2899 111 67.1128 111 76.3125Z" fill="url(#paint0_linear_234_25)"/>
<path d="M65.4766 82.8615C65.8026 86.9963 69.0702 90.2153 74.9324 90.6038V93.6562H77.5339V90.5829C83.6042 90.1598 87.1493 86.913 87.1493 82.2094C87.1493 77.922 84.4437 75.7159 79.5874 74.5781L77.5339 74.0925V65.7675C80.1424 66.0658 81.7936 67.488 82.189 69.4583H86.7539C86.4278 65.4692 83.0076 62.3543 77.5339 62.0143V58.9688H74.9324V62.0906C69.7501 62.5971 66.2258 65.712 66.2258 70.1242C66.2258 74.0231 68.8482 76.5067 73.2119 77.5196L74.9324 77.9428V86.7673C72.2684 86.3649 70.4993 84.8942 70.1039 82.8615H65.4766ZM74.9116 73.4681C72.3516 72.8784 70.9641 71.6644 70.9641 69.8467C70.9641 67.8071 72.4626 66.2809 74.9324 65.8369V73.4681H74.9116ZM77.9086 78.6435C81.0235 79.365 82.4526 80.5305 82.4526 82.5909C82.4526 84.9427 80.6697 86.5523 77.5339 86.8506V78.5603L77.9086 78.6435Z" fill="#EF233C"/>
<path d="M65.4766 82.8615C65.8026 86.9963 69.0702 90.2153 74.9324 90.6038V93.6562H77.5339V90.5829C83.6042 90.1598 87.1493 86.913 87.1493 82.2094C87.1493 77.922 84.4437 75.7159 79.5874 74.5781L77.5339 74.0925V65.7675C80.1424 66.0658 81.7936 67.488 82.189 69.4583H86.7539C86.4278 65.4692 83.0076 62.3543 77.5339 62.0143V58.9688H74.9324V62.0906C69.7501 62.5971 66.2258 65.712 66.2258 70.1242C66.2258 74.0231 68.8482 76.5067 73.2119 77.5196L74.9324 77.9428V86.7673C72.2684 86.3649 70.4993 84.8942 70.1039 82.8615H65.4766ZM74.9116 73.4681C72.3516 72.8784 70.9641 71.6644 70.9641 69.8467C70.9641 67.8071 72.4626 66.2809 74.9324 65.8369V73.4681H74.9116ZM77.9086 78.6435C81.0235 79.365 82.4526 80.5305 82.4526 82.5909C82.4526 84.9427 80.6697 86.5523 77.5339 86.8506V78.5603L77.9086 78.6435Z" fill="url(#paint1_linear_234_25)"/>
<path d="M6.9375 0C5.09756 0 3.33298 0.730913 2.03195 2.03195C0.730913 3.33298 0 5.09756 0 6.9375L0 62.4375C0 64.2774 0.730913 66.042 2.03195 67.3431C3.33298 68.6441 5.09756 69.375 6.9375 69.375H35.2633C35.6657 66.9885 36.2693 64.6714 37.0532 62.4375H20.8125C20.8125 58.7576 19.3507 55.2285 16.7486 52.6264C14.1465 50.0243 10.6174 48.5625 6.9375 48.5625V20.8125C10.6174 20.8125 14.1465 19.3507 16.7486 16.7486C19.3507 14.1465 20.8125 10.6174 20.8125 6.9375H90.1875C90.1875 10.6174 91.6493 14.1465 94.2514 16.7486C96.8535 19.3507 100.383 20.8125 104.062 20.8125V45.288C106.699 47.6467 109.037 50.3385 111 53.2939V6.9375C111 5.09756 110.269 3.33298 108.968 2.03195C107.667 0.730913 105.902 0 104.062 0L6.9375 0Z" fill="#EF233C"/>
<path d="M6.9375 0C5.09756 0 3.33298 0.730913 2.03195 2.03195C0.730913 3.33298 0 5.09756 0 6.9375L0 62.4375C0 64.2774 0.730913 66.042 2.03195 67.3431C3.33298 68.6441 5.09756 69.375 6.9375 69.375H35.2633C35.6657 66.9885 36.2693 64.6714 37.0532 62.4375H20.8125C20.8125 58.7576 19.3507 55.2285 16.7486 52.6264C14.1465 50.0243 10.6174 48.5625 6.9375 48.5625V20.8125C10.6174 20.8125 14.1465 19.3507 16.7486 16.7486C19.3507 14.1465 20.8125 10.6174 20.8125 6.9375H90.1875C90.1875 10.6174 91.6493 14.1465 94.2514 16.7486C96.8535 19.3507 100.383 20.8125 104.062 20.8125V45.288C106.699 47.6467 109.037 50.3385 111 53.2939V6.9375C111 5.09756 110.269 3.33298 108.968 2.03195C107.667 0.730913 105.902 0 104.062 0L6.9375 0Z" fill="url(#paint2_linear_234_25)"/>
<path d="M69.3611 35.2634L69.375 34.6875C69.3736 32.2982 68.7552 29.9497 67.5797 27.8696C66.4042 25.7894 64.7114 24.048 62.6653 22.8141C60.6192 21.5802 58.2892 20.8956 55.9009 20.8266C53.5125 20.7576 51.1469 21.3065 49.0329 22.4201C46.919 23.5338 45.1285 25.1745 43.8348 27.1832C42.5411 29.192 41.7881 31.5009 41.6486 33.8861C41.5092 36.2714 41.9881 38.6523 43.039 40.7981C44.0898 42.9439 45.677 44.7821 47.6468 46.1344C53.6391 40.4267 61.201 36.641 69.3611 35.2634Z" fill="#EF233C"/>
<path d="M69.3611 35.2634L69.375 34.6875C69.3736 32.2982 68.7552 29.9497 67.5797 27.8696C66.4042 25.7894 64.7114 24.048 62.6653 22.8141C60.6192 21.5802 58.2892 20.8956 55.9009 20.8266C53.5125 20.7576 51.1469 21.3065 49.0329 22.4201C46.919 23.5338 45.1285 25.1745 43.8348 27.1832C42.5411 29.192 41.7881 31.5009 41.6486 33.8861C41.5092 36.2714 41.9881 38.6523 43.039 40.7981C44.0898 42.9439 45.677 44.7821 47.6468 46.1344C53.6391 40.4267 61.201 36.641 69.3611 35.2634Z" fill="url(#paint3_linear_234_25)"/>
<defs>
<linearGradient id="paint0_linear_234_25" x1="74.75" y1="116.937" x2="75.6875" y2="41.9375" gradientUnits="userSpaceOnUse">
<stop/>
<stop offset="1" stop-opacity="0"/>
</linearGradient>
<linearGradient id="paint1_linear_234_25" x1="75.8248" y1="96.625" x2="76.5749" y2="59.1341" gradientUnits="userSpaceOnUse">
<stop/>
<stop offset="1" stop-opacity="0"/>
</linearGradient>
<linearGradient id="paint2_linear_234_25" x1="53" y1="75.3125" x2="53.586" y2="0.305358" gradientUnits="userSpaceOnUse">
<stop/>
<stop offset="1" stop-opacity="0"/>
</linearGradient>
<linearGradient id="paint3_linear_234_25" x1="54.875" y1="48.3009" x2="55.1871" y2="20.9341" gradientUnits="userSpaceOnUse">
<stop/>
<stop offset="1" stop-opacity="0"/>
</linearGradient>
</defs>
</svg>
