<svg width="111" height="111" viewBox="0 0 111 111" fill="none" xmlns="http://www.w3.org/2000/svg">
<path d="M37.0324 11.0306C30.4251 12.8516 23.8626 14.8317 17.3507 16.9691C16.7561 17.1617 16.2275 17.5175 15.8252 17.9958C15.4229 18.4742 15.1631 19.0559 15.0752 19.6747C11.2319 48.5139 20.1119 69.5554 30.7054 83.4165C35.1906 89.3438 40.5387 94.5656 46.5715 98.9079C48.9719 100.601 51.0947 101.822 52.7667 102.606C53.5992 103.001 54.279 103.265 54.7994 103.424C55.0269 103.504 55.2615 103.562 55.5 103.598C55.7357 103.559 55.9678 103.501 56.1938 103.424C56.721 103.265 57.4009 103.001 58.2334 102.606C59.8984 101.822 62.0282 100.594 64.4286 98.9079C70.4613 94.5655 75.8094 89.3438 80.2947 83.4165C90.8882 69.5623 99.7682 48.5139 95.9249 19.6747C95.8378 19.0556 95.5782 18.4735 95.1758 17.995C94.7734 17.5166 94.2444 17.161 93.6494 16.9691C89.133 15.4914 81.5087 13.0841 73.9677 11.0376C66.267 8.94937 59.1839 7.40231 55.5 7.40231C51.8232 7.40231 44.733 8.94244 37.0324 11.0306ZM35.187 3.885C42.7142 1.83844 50.7132 0 55.5 0C60.2869 0 68.2859 1.83844 75.813 3.885C83.5137 5.96625 91.2767 8.42906 95.8416 9.92062C97.7502 10.5509 99.4422 11.7068 100.723 13.2555C102.005 14.8042 102.823 16.6829 103.084 18.6757C107.219 49.7349 97.6245 72.7536 85.9834 87.9814C81.047 94.4956 75.1609 100.232 68.5217 104.999C66.226 106.649 63.7937 108.099 61.2512 109.335C59.3087 110.251 57.2205 111 55.5 111C53.7795 111 51.6983 110.251 49.7489 109.335C47.2064 108.099 44.774 106.649 42.4784 104.999C35.8394 100.232 29.9533 94.4954 25.0167 87.9814C13.3755 72.7536 3.78097 49.7349 7.91573 18.6757C8.17718 16.6829 8.9955 14.8042 10.2767 13.2555C11.5578 11.7068 13.2499 10.5509 15.1585 9.92062C21.7851 7.74786 28.4633 5.7354 35.187 3.885Z" fill="#EF233C"/>
<path d="M37.0324 11.0306C30.4251 12.8516 23.8626 14.8317 17.3507 16.9691C16.7561 17.1617 16.2275 17.5175 15.8252 17.9958C15.4229 18.4742 15.1631 19.0559 15.0752 19.6747C11.2319 48.5139 20.1119 69.5554 30.7054 83.4165C35.1906 89.3438 40.5387 94.5656 46.5715 98.9079C48.9719 100.601 51.0947 101.822 52.7667 102.606C53.5992 103.001 54.279 103.265 54.7994 103.424C55.0269 103.504 55.2615 103.562 55.5 103.598C55.7357 103.559 55.9678 103.501 56.1938 103.424C56.721 103.265 57.4009 103.001 58.2334 102.606C59.8984 101.822 62.0282 100.594 64.4286 98.9079C70.4613 94.5655 75.8094 89.3438 80.2947 83.4165C90.8882 69.5623 99.7682 48.5139 95.9249 19.6747C95.8378 19.0556 95.5782 18.4735 95.1758 17.995C94.7734 17.5166 94.2444 17.161 93.6494 16.9691C89.133 15.4914 81.5087 13.0841 73.9677 11.0376C66.267 8.94937 59.1839 7.40231 55.5 7.40231C51.8232 7.40231 44.733 8.94244 37.0324 11.0306ZM35.187 3.885C42.7142 1.83844 50.7132 0 55.5 0C60.2869 0 68.2859 1.83844 75.813 3.885C83.5137 5.96625 91.2767 8.42906 95.8416 9.92062C97.7502 10.5509 99.4422 11.7068 100.723 13.2555C102.005 14.8042 102.823 16.6829 103.084 18.6757C107.219 49.7349 97.6245 72.7536 85.9834 87.9814C81.047 94.4956 75.1609 100.232 68.5217 104.999C66.226 106.649 63.7937 108.099 61.2512 109.335C59.3087 110.251 57.2205 111 55.5 111C53.7795 111 51.6983 110.251 49.7489 109.335C47.2064 108.099 44.774 106.649 42.4784 104.999C35.8394 100.232 29.9533 94.4954 25.0167 87.9814C13.3755 72.7536 3.78097 49.7349 7.91573 18.6757C8.17718 16.6829 8.9955 14.8042 10.2767 13.2555C11.5578 11.7068 13.2499 10.5509 15.1585 9.92062C21.7851 7.74786 28.4633 5.7354 35.187 3.885Z" fill="url(#paint0_linear_234_40)"/>
<path d="M65.9063 45.0937C65.9074 47.2466 65.2408 49.3468 63.9982 51.1049C62.7557 52.8631 60.9985 54.1926 58.9688 54.9102L61.6397 68.7159C61.7369 69.218 61.7218 69.7354 61.5956 70.231C61.4693 70.7266 61.2351 71.1882 60.9096 71.5827C60.584 71.9772 60.1753 72.2948 59.7126 72.5128C59.25 72.7308 58.7448 72.8438 58.2334 72.8437H52.7666C52.2558 72.8428 51.7514 72.729 51.2896 72.5106C50.8278 72.2921 50.4199 71.9744 50.0952 71.58C49.7704 71.1857 49.5368 70.7245 49.4109 70.2293C49.2851 69.7342 49.2702 69.2174 49.3673 68.7159L52.0313 54.9102C50.2328 54.2744 48.6437 53.1564 47.4376 51.6785C46.2316 50.2006 45.4549 48.4196 45.1926 46.5301C44.9303 44.6407 45.1924 42.7155 45.9502 40.9649C46.7081 39.2144 47.9325 37.7058 49.4897 36.604C51.047 35.5023 52.8771 34.8498 54.7801 34.7178C56.6831 34.5858 58.5857 34.9795 60.2801 35.8557C61.9745 36.732 63.3955 38.0571 64.3877 39.6863C65.3799 41.3155 65.9053 43.1861 65.9063 45.0937Z" fill="#EF233C"/>
<defs>
<linearGradient id="paint0_linear_234_40" x1="55.5" y1="0" x2="55.5" y2="111" gradientUnits="userSpaceOnUse">
<stop stop-opacity="0"/>
<stop offset="1"/>
</linearGradient>
</defs>
</svg>
