<svg width="111" height="111" viewBox="0 0 111 111" fill="none" xmlns="http://www.w3.org/2000/svg">
<g clip-path="url(#clip0_234_33)">
<path d="M45.0939 31.0941C56.6379 19.4876 85.5048 39.7937 45.0939 65.9064C4.68297 39.7937 33.5499 19.4946 45.0939 31.0941Z" fill="#EF233C"/>
<path d="M90.1876 45.0938C90.2026 54.6872 87.144 64.0331 81.4602 71.7615C81.7377 71.9696 82.0013 72.1916 82.258 72.4414L108.967 99.1508C110.269 100.452 111.001 102.216 111.001 104.057C111.002 105.897 110.272 107.662 108.971 108.964C107.67 110.266 105.905 110.997 104.065 110.998C102.225 110.999 100.459 110.268 99.1577 108.967L72.4484 82.2579C72.1973 82.0099 71.9654 81.7432 71.7546 81.4601H71.7685C63.5948 87.4569 53.639 90.5245 43.5077 90.1679C33.3764 89.8114 23.6609 86.0514 15.929 79.4948C8.19719 72.9383 2.90017 63.9677 0.892876 54.0309C-1.11442 44.0941 0.285131 33.7708 4.86564 24.7271C9.44615 15.6834 16.9404 8.44693 26.1388 4.18566C35.3372 -0.0756197 45.7032 -1.11311 55.5637 1.24063C65.4242 3.59437 74.204 9.20202 80.486 17.1585C86.7679 25.115 90.1857 34.9562 90.1876 45.0938ZM45.0938 83.25C50.1046 83.25 55.0662 82.2631 59.6956 80.3455C64.3249 78.428 68.5312 75.6174 72.0743 72.0743C75.6175 68.5312 78.4281 64.3249 80.3456 59.6955C82.2631 55.0662 83.2501 50.1045 83.2501 45.0938C83.2501 40.083 82.2631 35.1213 80.3456 30.492C78.4281 25.8627 75.6175 21.6563 72.0743 18.1132C68.5312 14.5701 64.3249 11.7595 59.6956 9.84198C55.0662 7.92445 50.1046 6.93751 45.0938 6.93751C34.9741 6.93751 25.2689 10.9575 18.1133 18.1132C10.9576 25.2689 6.93756 34.9741 6.93756 45.0938C6.93756 55.2134 10.9576 64.9186 18.1133 72.0743C25.2689 79.23 34.9741 83.25 45.0938 83.25Z" fill="#EF233C"/>
<path d="M90.1876 45.0938C90.2026 54.6872 87.144 64.0331 81.4602 71.7615C81.7377 71.9696 82.0013 72.1916 82.258 72.4414L108.967 99.1508C110.269 100.452 111.001 102.216 111.001 104.057C111.002 105.897 110.272 107.662 108.971 108.964C107.67 110.266 105.905 110.997 104.065 110.998C102.225 110.999 100.459 110.268 99.1577 108.967L72.4484 82.2579C72.1973 82.0099 71.9654 81.7432 71.7546 81.4601H71.7685C63.5948 87.4569 53.639 90.5245 43.5077 90.1679C33.3764 89.8114 23.6609 86.0514 15.929 79.4948C8.19719 72.9383 2.90017 63.9677 0.892876 54.0309C-1.11442 44.0941 0.285131 33.7708 4.86564 24.7271C9.44615 15.6834 16.9404 8.44693 26.1388 4.18566C35.3372 -0.0756197 45.7032 -1.11311 55.5637 1.24063C65.4242 3.59437 74.204 9.20202 80.486 17.1585C86.7679 25.115 90.1857 34.9562 90.1876 45.0938ZM45.0938 83.25C50.1046 83.25 55.0662 82.2631 59.6956 80.3455C64.3249 78.428 68.5312 75.6174 72.0743 72.0743C75.6175 68.5312 78.4281 64.3249 80.3456 59.6955C82.2631 55.0662 83.2501 50.1045 83.2501 45.0938C83.2501 40.083 82.2631 35.1213 80.3456 30.492C78.4281 25.8627 75.6175 21.6563 72.0743 18.1132C68.5312 14.5701 64.3249 11.7595 59.6956 9.84198C55.0662 7.92445 50.1046 6.93751 45.0938 6.93751C34.9741 6.93751 25.2689 10.9575 18.1133 18.1132C10.9576 25.2689 6.93756 34.9741 6.93756 45.0938C6.93756 55.2134 10.9576 64.9186 18.1133 72.0743C25.2689 79.23 34.9741 83.25 45.0938 83.25Z" fill="url(#paint0_linear_234_33)"/>
</g>
<defs>
<linearGradient id="paint0_linear_234_33" x1="55.5007" y1="0.00830078" x2="55.5007" y2="110.998" gradientUnits="userSpaceOnUse">
<stop stop-opacity="0"/>
<stop offset="1"/>
</linearGradient>
<clipPath id="clip0_234_33">
<rect width="111" height="111" fill="white"/>
</clipPath>
</defs>
</svg>
